<svg width="36" height="36" viewBox="0 0 36 36" fill="none" xmlns="http://www.w3.org/2000/svg">
<rect width="36" height="36" rx="10" fill="#FFF5D9"/>
<path d="M15.4058 8.29974C16.3087 9.06296 16.7425 10.3219 16.8399 11.4687C16.8851 12.1878 16.749 12.8899 16.5754 13.5846C16.5125 13.8393 16.4615 14.0937 16.4209 14.353C16.416 14.3845 16.411 14.416 16.4059 14.4484C16.3492 14.8287 16.3219 15.206 16.3167 15.5903C16.3162 15.6245 16.3156 15.6587 16.3151 15.6939C16.313 15.8362 16.311 15.9785 16.3102 16.1208C16.3096 16.226 16.3078 16.3311 16.3059 16.4363C16.306 16.468 16.3061 16.4998 16.3062 16.5325C16.301 16.7555 16.2562 16.9253 16.1094 17.0976C15.8773 17.2677 15.6322 17.3251 15.3546 17.3885C15.3108 17.3989 15.2669 17.4093 15.2218 17.42C15.08 17.4535 14.9381 17.4864 14.7962 17.5192C14.6987 17.5421 14.6012 17.565 14.5038 17.5879C14.3112 17.6332 14.1185 17.6782 13.9257 17.723C13.6981 17.776 13.4709 17.8305 13.2437 17.8856C13.1843 17.9 13.1249 17.9143 13.0655 17.9285C12.9605 17.9538 12.8556 17.9793 12.7507 18.0051C12.1846 18.1394 12.1846 18.1394 11.8931 18.0402C11.6142 17.8523 11.4394 17.5589 11.2647 17.2775C11.2423 17.2417 11.22 17.206 11.197 17.1691C10.0066 15.2449 9.17418 13.2107 9.68995 10.9243C9.97331 9.75817 10.5053 8.60449 11.5547 7.94525C12.8045 7.24611 14.2916 7.43041 15.4058 8.29974Z" fill="#CEA021"/>
<path d="M24.4024 13.6172C24.4328 13.641 24.4631 13.6649 24.4944 13.6894C25.3287 14.3759 25.9028 15.4732 26.2071 16.4961C26.2156 16.5247 26.2241 16.5534 26.2329 16.5828C26.7931 18.5192 26.27 20.5632 25.5733 22.3963C25.5617 22.4271 25.5502 22.4579 25.5382 22.4896C25.4482 22.7171 25.3577 22.8851 25.1435 23.0109C24.996 23.0737 24.8999 23.0862 24.7407 23.0857C24.6894 23.0858 24.6381 23.0859 24.5852 23.0861C24.53 23.0855 24.4749 23.085 24.418 23.0844C24.3595 23.0843 24.301 23.0842 24.2425 23.0842C24.1194 23.084 23.9964 23.0834 23.8733 23.0824C23.7194 23.0812 23.5654 23.0808 23.4114 23.0805C23.0543 23.08 22.6973 23.0768 22.3403 23.0716C22.2543 23.0703 22.1683 23.0693 22.0823 23.0683C21.9216 23.0662 21.7611 23.0628 21.6005 23.0589C21.5529 23.0584 21.5052 23.0578 21.4561 23.0572C21.1357 23.0475 20.9675 22.9904 20.739 22.7561C20.6497 22.6185 20.618 22.5013 20.5827 22.3412C20.5729 22.2981 20.5729 22.2981 20.5628 22.2542C20.5488 22.1928 20.535 22.1315 20.5215 22.07C20.4857 21.9088 20.4476 21.7481 20.4093 21.5874C20.4018 21.5557 20.3942 21.5239 20.3865 21.4912C20.1972 20.7041 19.887 19.9755 19.5298 19.2513C18.8844 17.9368 18.7317 16.5017 19.2062 15.0991C19.526 14.2154 20.153 13.5769 20.9918 13.1714C22.1465 12.668 23.4242 12.8228 24.4024 13.6172Z" fill="#CEA021"/>
<path d="M16.6738 17.8504C16.839 17.9817 16.9192 18.1576 17.0117 18.3437C17.0266 18.373 17.0415 18.4022 17.0569 18.4324C17.4348 19.177 17.7155 19.9268 17.7126 20.7715C17.7133 20.8131 17.714 20.8547 17.7147 20.8975C17.7151 21.4005 17.5679 21.8456 17.2249 22.2208C16.6538 22.7586 15.9577 22.8448 15.2037 22.8242C14.6252 22.7978 14.0524 22.5669 13.6279 22.1653C12.8924 21.3564 12.4232 20.3957 12.312 19.3025C12.3388 19.0662 12.4142 18.8858 12.601 18.7347C12.8032 18.6037 13.0361 18.5562 13.2667 18.4958C13.3166 18.4824 13.3664 18.4689 13.4178 18.455C13.5772 18.4121 13.7369 18.3699 13.8965 18.3276C14.0012 18.2996 14.1059 18.2715 14.2105 18.2434C14.4159 18.1882 14.6214 18.1334 14.827 18.0789C15.0173 18.0282 15.207 17.976 15.3964 17.9221C15.4391 17.91 15.4819 17.8979 15.526 17.8854C15.6049 17.8631 15.6837 17.8403 15.7624 17.8172C16.0779 17.7281 16.3772 17.6817 16.6738 17.8504Z" fill="#CEA021"/>
<path d="M21.1993 23.584C21.2842 23.5866 21.2842 23.5866 21.3709 23.5894C21.4334 23.5918 21.4958 23.5943 21.5583 23.5968C21.6235 23.599 21.6888 23.6013 21.754 23.6036C21.8978 23.6086 22.0415 23.614 22.1852 23.6197C22.4011 23.6281 22.6169 23.6358 22.8327 23.6433C23.0197 23.6499 23.2067 23.6569 23.3936 23.664C23.4857 23.6675 23.5777 23.6709 23.6698 23.6741C23.8001 23.6788 23.9303 23.684 24.0606 23.6892C24.0994 23.6905 24.1382 23.6918 24.1781 23.6932C24.7379 23.7174 24.7379 23.7174 24.9314 23.9163C24.9516 23.936 24.9718 23.9557 24.9926 23.9759C25.291 24.4314 25.1709 25.2382 25.0871 25.7479C24.8841 26.6583 24.5067 27.5454 23.7014 28.0655C23.0557 28.4444 22.2914 28.6005 21.5529 28.4307C21.0897 28.2984 20.7124 28.0726 20.4455 27.6576C19.8957 26.616 20.0289 25.3426 20.3557 24.2443C20.433 23.9988 20.5067 23.8401 20.707 23.6719C20.8772 23.5864 21.0101 23.5774 21.1993 23.584Z" fill="#CEA021"/>
</svg>
