<svg width="44" height="42" viewBox="0 0 44 42" fill="none" xmlns="http://www.w3.org/2000/svg">
<path d="M37.4726 34.4172C37.1624 34.4135 36.8893 34.3332 36.6533 34.1765C36.4196 34.0174 36.238 33.796 36.1084 33.5122C35.9812 33.2285 35.9199 32.8954 35.9245 32.5129C35.9296 32.0791 35.9988 31.6613 36.1319 31.2594C36.265 30.8551 36.4512 30.4935 36.6906 30.1745C36.9324 29.8555 37.2188 29.6035 37.5499 29.4186C37.8809 29.2336 38.247 29.1435 38.6482 29.1483C38.9094 29.1514 39.1292 29.1949 39.3078 29.2787C39.4888 29.3601 39.6333 29.4691 39.7413 29.6057C39.8516 29.74 39.9315 29.889 39.9808 30.0529C40.0302 30.2144 40.0539 30.3757 40.052 30.5366C40.0513 30.5972 40.0458 30.6659 40.0355 30.7428C40.0276 30.8197 40.0176 30.8802 40.0054 30.9244L39.5821 30.9193C39.5943 30.8775 39.6043 30.8204 39.6121 30.7482C39.62 30.6737 39.6243 30.6119 39.6248 30.5629C39.6269 30.3927 39.595 30.2302 39.5292 30.0755C39.4634 29.9208 39.3541 29.7947 39.2014 29.6972C39.0486 29.5974 38.8463 29.546 38.5945 29.543C38.254 29.5389 37.9474 29.6216 37.6748 29.7909C37.4023 29.9602 37.1686 30.1884 36.9739 30.4753C36.7792 30.7621 36.6296 31.0834 36.5251 31.439C36.4206 31.7923 36.3661 32.152 36.3617 32.5181C36.358 32.8283 36.4038 33.0959 36.4991 33.321C36.5967 33.5437 36.7346 33.7168 36.9127 33.8402C37.0908 33.9613 37.2988 34.0233 37.5367 34.0261C37.8306 34.0296 38.0842 33.9778 38.2978 33.8708C38.5113 33.7637 38.6855 33.634 38.8202 33.4817C38.9573 33.3294 39.0558 33.1883 39.1157 33.0584L39.2746 32.3501L37.9313 32.334L38.0126 31.9711L39.7512 31.9919L39.2154 34.3716L38.8796 34.3675L38.9989 33.7567C38.9608 33.8169 38.8794 33.9011 38.7544 34.0092C38.6296 34.115 38.4616 34.2109 38.2507 34.297C38.0398 34.3808 37.7804 34.4209 37.4726 34.4172Z" fill="#F9F4DA"/>
<path d="M31.5661 34.28L31.1429 34.275L32.303 29.1284L33.0096 29.1368L34.3152 34.061L34.2765 34.0816L35.3849 29.1652L35.8081 29.1703L34.648 34.3169L33.9309 34.3083L32.6322 29.3912L32.671 29.3707L31.5661 34.28Z" fill="#F9F4DA"/>
<path d="M29.67 34.2574L30.8266 29.1108L31.2569 29.1159L30.1002 34.2626L29.67 34.2574Z" fill="#F9F4DA"/>
<path d="M29.798 29.0983L28.6379 34.2449L28.2041 34.2397L28.7878 31.6542L28.9392 31.8694L26.0952 31.8354L26.3356 31.6248L25.7519 34.2104L25.3182 34.2052L26.4783 29.0585L26.9121 29.0637L26.3211 31.6736L26.1698 31.4514L29.0173 31.4855L28.7768 31.703L29.3643 29.0931L29.798 29.0983Z" fill="#F9F4DA"/>
<path d="M25.618 29.4298L24.0403 29.4109L24.288 29.1724L23.1646 34.1795L22.7308 34.1744L23.8578 29.1673L23.9983 29.4104L22.4241 29.3915L22.5092 29.0112L25.7065 29.0495L25.618 29.4298Z" fill="#F9F4DA"/>
<path d="M21.9518 29.0043L19.7848 32.3406L19.3784 34.134L18.9482 34.1288L19.351 32.3354L18.6951 28.9653L19.1428 28.9707L19.7147 32.0563L19.5258 32.0541L21.4796 28.9986L21.9518 29.0043Z" fill="#F9F4DA"/>
<path d="M14.1326 34.0714L15.2928 28.9248L16.9439 28.9445C17.3427 28.9493 17.6366 29.0438 17.8256 29.228C18.0171 29.4098 18.1109 29.6535 18.1073 29.959C18.1051 30.1409 18.0737 30.326 18.0132 30.5142C17.9526 30.7024 17.8665 30.8775 17.755 31.0394C17.6458 31.199 17.5159 31.3316 17.3654 31.4371C17.2148 31.5426 17.0508 31.6036 16.8734 31.6201C16.9782 31.6307 17.0758 31.6587 17.1663 31.7041C17.259 31.7472 17.3341 31.8134 17.3913 31.9027C17.4509 31.9921 17.4798 32.109 17.4781 32.2536C17.4773 32.3143 17.4658 32.4016 17.4434 32.5156C17.4211 32.6296 17.3927 32.7564 17.3584 32.8959C17.3264 33.0355 17.2933 33.1762 17.2589 33.3181C17.2269 33.4576 17.1986 33.5856 17.1738 33.7019C17.1515 33.8183 17.1399 33.9079 17.1391 33.9709C17.1388 34.0035 17.1396 34.0327 17.1416 34.0584C17.146 34.0818 17.1504 34.0981 17.155 34.1075L16.7177 34.1023C16.7087 34.0765 16.7046 34.0345 16.7052 33.9762C16.7059 33.9179 16.7174 33.8341 16.7397 33.7247C16.762 33.6153 16.7891 33.4944 16.8211 33.3618C16.853 33.2293 16.8837 33.0967 16.9133 32.9641C16.9452 32.8315 16.9723 32.7106 16.9946 32.6012C17.0169 32.4895 17.0284 32.4057 17.0291 32.3497C17.0313 32.1608 16.9653 32.0247 16.831 31.9415C16.6968 31.8583 16.513 31.8152 16.2798 31.8124L14.8806 31.7957L15.1063 31.6445L14.5594 34.0765L14.1326 34.0714ZM15.1247 31.5642L14.9586 31.4118L16.3684 31.4287C16.6062 31.4315 16.8204 31.3711 17.0108 31.2474C17.2035 31.1238 17.3571 30.9588 17.4715 30.7526C17.586 30.5464 17.6446 30.3232 17.6475 30.083C17.6502 29.8521 17.5859 29.6694 17.4546 29.5349C17.3233 29.398 17.1084 29.3278 16.8099 29.3243L15.4456 29.3079L15.6863 29.0729L15.1247 31.5642Z" fill="#F9F4DA"/>
<path d="M11.7442 29.264L11.9954 29.0256L11.4596 31.4123L11.3775 31.2573L13.4519 31.2821L13.3668 31.666L11.2924 31.6412L11.4412 31.489L10.9016 33.8931L10.7576 33.65L13.2308 33.6796L13.1458 34.0599L10.4312 34.0274L11.5913 28.8808L14.3059 28.9133L14.2209 29.2936L11.7442 29.264Z" fill="#F9F4DA"/>
<path d="M7.68741 34.0294L7.40674 28.8306L7.87549 28.8362L8.08676 33.6948L8.05178 33.6944L10.4151 28.8666L10.9049 28.8724L8.31008 34.0368L7.68741 34.0294Z" fill="#F9F4DA"/>
<path d="M4.07524 29.1717L4.3265 28.9333L3.79065 31.32L3.70853 31.165L5.78293 31.1899L5.69787 31.5737L3.62347 31.5489L3.77224 31.3967L3.23268 33.8008L3.08864 33.5577L5.56182 33.5873L5.4768 33.9676L2.76225 33.9351L3.92239 28.7885L6.63694 28.821L6.55192 29.2013L4.07524 29.1717Z" fill="#F9F4DA"/>
<path d="M37.8185 18.9256L35.6021 18.8991L36.5345 18.1629L35.2576 23.828L33.5659 23.8078L34.8428 18.1427L35.4384 18.8971L33.2261 18.8707L33.5099 17.6145L38.1022 17.6695L37.8185 18.9256Z" fill="#F9F4DA"/>
<path d="M31.9864 21.5854C31.8149 22.3531 31.4778 22.927 30.975 23.3072C30.4722 23.6875 29.8641 23.8733 29.1504 23.8648C28.4592 23.8565 27.9278 23.706 27.5563 23.4133C27.1847 23.1206 27.0023 22.6929 27.009 22.1304C27.0112 21.9485 27.0288 21.7668 27.0617 21.5853C27.0975 21.4038 27.1479 21.1679 27.2129 20.8776L27.9791 17.549L29.675 17.5693L28.8511 21.1617C28.8186 21.3012 28.792 21.4199 28.7713 21.5176C28.7533 21.6125 28.7397 21.6977 28.7304 21.7732C28.7212 21.8458 28.7161 21.9213 28.7151 21.9997C28.713 22.1788 28.7575 22.3165 28.8487 22.4127C28.9399 22.509 29.0919 22.5584 29.3046 22.5609C29.59 22.5644 29.8065 22.4844 29.954 22.321C30.1015 22.1576 30.2107 21.9196 30.2816 21.607L31.1862 17.5874L32.8821 17.6077L31.9864 21.5854Z" fill="#F9F4DA"/>
<path d="M23.0037 23.791C22.5419 23.7855 22.1233 23.6839 21.7478 23.4863C21.3751 23.2887 21.0805 22.9983 20.864 22.615C20.6474 22.2318 20.5425 21.7603 20.5492 21.2006C20.5557 20.6549 20.6471 20.1508 20.8234 19.6883C20.9997 19.223 21.248 18.8187 21.5684 18.4755C21.8888 18.1294 22.2699 17.8625 22.7116 17.6747C23.1561 17.4841 23.6484 17.392 24.1885 17.3985C24.6587 17.4041 25.0801 17.5043 25.4528 17.6991C25.8255 17.8939 26.1188 18.18 26.3326 18.5577C26.5492 18.9353 26.6542 19.4026 26.6475 19.9595C26.641 20.5024 26.5482 21.0079 26.3691 21.476C26.1928 21.9413 25.943 22.3497 25.6197 22.7013C25.2964 23.0501 24.9139 23.3212 24.4722 23.5147C24.0305 23.7053 23.541 23.7974 23.0037 23.791ZM23.1704 22.4831C23.4727 22.4867 23.7339 22.4129 23.954 22.2616C24.1741 22.1102 24.3557 21.9095 24.4986 21.6593C24.6415 21.4091 24.7484 21.1333 24.8192 20.8319C24.89 20.5276 24.9272 20.2244 24.9308 19.9222C24.9345 19.6143 24.8954 19.3731 24.8135 19.1986C24.7317 19.0213 24.6212 18.8954 24.4822 18.821C24.3459 18.7466 24.1924 18.7084 24.0217 18.7063C23.7167 18.7027 23.4541 18.7723 23.2341 18.9152C23.0141 19.0582 22.8327 19.2505 22.6898 19.4923C22.5498 19.7341 22.4458 20.0044 22.3778 20.3031C22.3099 20.6017 22.2741 20.9064 22.2704 21.217C22.2647 21.6928 22.3489 22.0226 22.523 22.2066C22.6972 22.3879 22.913 22.48 23.1704 22.4831Z" fill="#F9F4DA"/>
<path d="M21.5504 17.4717L18.8025 21.5113L18.3196 23.6257L16.6321 23.6055L17.1108 21.491L16.1982 17.4077L17.9487 17.4287L18.4089 20.7215L17.7457 20.7135L19.7118 17.4497L21.5504 17.4717Z" fill="#F9F4DA"/>
<path d="M9.84024 23.5242L12.6722 17.3655L15.363 17.3977L15.4023 23.5908L13.7442 23.5709L13.8649 18.3916L13.8733 18.3917L11.6495 23.5459L9.84024 23.5242ZM11.3922 22.2413L11.6803 20.9726L14.7362 21.0092L14.4482 22.2779L11.3922 22.2413Z" fill="#F9F4DA"/>
<path d="M5.58145 23.4734L6.97362 17.2975L8.66951 17.3178L7.39246 22.9955L6.81492 22.1405L9.78694 22.1761L9.48537 23.5201L5.58145 23.4734Z" fill="#F9F4DA"/>
<path d="M29.3506 11.2715C28.8888 11.2659 28.4702 11.1644 28.0947 10.9667C27.722 10.7692 27.4274 10.4787 27.2109 10.0955C26.9944 9.71226 26.8894 9.24079 26.8961 8.68109C26.9027 8.13538 26.9941 7.63127 27.1703 7.16876C27.3466 6.70345 27.595 6.29918 27.9154 5.95595C28.2358 5.60992 28.6168 5.34298 29.0585 5.15514C29.503 4.96453 29.9953 4.87246 30.5354 4.87892C31.0056 4.88455 31.427 4.98475 31.7997 5.17954C32.1725 5.37432 32.4657 5.66052 32.6795 6.03813C32.8961 6.41577 33.0011 6.88305 32.9944 7.43995C32.9879 7.98286 32.8951 8.48836 32.716 8.95643C32.5397 9.42174 32.2899 9.83019 31.9666 10.1818C31.6434 10.5306 31.2609 10.8017 30.8191 10.9951C30.3774 11.1858 29.8879 11.2779 29.3506 11.2715ZM29.5174 9.96356C29.8196 9.96717 30.0808 9.89333 30.3009 9.74202C30.521 9.59071 30.7026 9.38997 30.8455 9.13977C30.9885 8.88958 31.0953 8.61377 31.1661 8.31233C31.2369 8.0081 31.2741 7.70486 31.2777 7.40262C31.2814 7.09479 31.2423 6.85361 31.1604 6.6791C31.0786 6.50179 30.9681 6.37592 30.8291 6.30148C30.6928 6.22708 30.5393 6.18886 30.3686 6.18682C30.0636 6.18317 29.8011 6.2528 29.581 6.39571C29.361 6.53862 29.1796 6.73098 29.0367 6.97277C28.8967 7.2146 28.7927 7.48485 28.7248 7.78352C28.6568 8.08219 28.621 8.38685 28.6173 8.69748C28.6116 9.17323 28.6958 9.50311 28.8699 9.68712C29.0441 9.86833 29.2599 9.96048 29.5174 9.96356Z" fill="#F9F4DA"/>
<path d="M27.225 6.20391L25.0086 6.1774L25.941 5.44125L24.6641 11.1064L22.9724 11.0861L24.2493 5.42101L24.8449 6.17544L22.6326 6.14898L22.9164 4.89286L27.5087 4.9478L27.225 6.20391Z" fill="#F9F4DA"/>
<path d="M21.3927 8.86276C21.2211 9.63041 20.884 10.2044 20.3813 10.5846C19.8785 10.9648 19.2703 11.1507 18.5567 11.1421C17.8655 11.1339 17.3341 10.9834 16.9625 10.6906C16.591 10.3979 16.4085 9.97028 16.4153 9.40778C16.4175 9.22588 16.435 9.04416 16.468 8.86263C16.5037 8.68113 16.5541 8.44522 16.6192 8.15491L17.3853 4.82638L19.0812 4.84666L18.2574 8.439C18.2249 8.57856 18.1983 8.6972 18.1775 8.79491C18.1596 8.88986 18.146 8.97506 18.1367 9.05052C18.1274 9.12318 18.1223 9.19869 18.1214 9.27705C18.1192 9.45616 18.1638 9.59384 18.255 9.69009C18.3462 9.78634 18.4981 9.83574 18.7108 9.83829C18.9963 9.8417 19.2128 9.76172 19.3603 9.59835C19.5077 9.43498 19.617 9.19698 19.6879 8.88435L20.5924 4.86474L22.2883 4.88503L21.3927 8.86276Z" fill="#F9F4DA"/>
<path d="M10.0072 10.931L12.8392 4.77225L15.53 4.80444L15.5693 10.9975L13.9112 10.9777L14.0319 5.79832L14.0403 5.79842L11.8165 10.9526L10.0072 10.931ZM11.5592 9.64803L11.8472 8.37937L14.9032 8.41593L14.6152 9.68459L11.5592 9.64803Z" fill="#F9F4DA"/>
<path fill-rule="evenodd" clip-rule="evenodd" d="M41.9808 0.699677H38.1326V0H41.9808C42.5604 0 43.0303 0.469884 43.0303 1.04952V4.89774H42.3306V1.04952C42.3306 0.856306 42.174 0.699677 41.9808 0.699677Z" fill="white"/>
<path fill-rule="evenodd" clip-rule="evenodd" d="M1.04948 40.9312L4.89771 40.9312L4.89771 41.6309L1.04948 41.6309C0.469847 41.6309 -3.71522e-05 41.161 -3.71015e-05 40.5813L-3.67651e-05 36.7331L0.699641 36.7331L0.69964 40.5813C0.69964 40.7746 0.856268 40.9312 1.04948 40.9312Z" fill="white"/>
<path fill-rule="evenodd" clip-rule="evenodd" d="M41.6309 40.5811L41.6309 36.7329L42.3306 36.7329L42.3306 40.5811C42.3306 41.1608 41.8607 41.6307 41.281 41.6307L37.4328 41.6307L37.4328 40.931L41.2811 40.931C41.4743 40.931 41.6309 40.7743 41.6309 40.5811Z" fill="white"/>
<path fill-rule="evenodd" clip-rule="evenodd" d="M1.39939 1.04972L1.39938 4.89795L0.699707 4.89795L0.699708 1.04972C0.699708 0.470091 1.16959 0.000207009 1.74922 0.000207085L5.59745 0.00020759L5.59745 0.699885L1.74922 0.699885C1.55601 0.699885 1.39939 0.856513 1.39939 1.04972Z" fill="white"/>
</svg>
