<svg width="31" height="26" viewBox="0 0 31 26" fill="none" xmlns="http://www.w3.org/2000/svg">
<g opacity="0.5">
<mask id="path-1-inside-1_61_401" fill="white">
<path d="M0 0H31V25.1429H0V0Z"/>
</mask>
<path d="M0 25.1429H1V0H0H-1V25.1429H0Z" fill="white" mask="url(#path-1-inside-1_61_401)"/>
<path fill-rule="evenodd" clip-rule="evenodd" d="M15.7 7.42857C15.2032 7.42857 14.8 7.04457 14.8 6.57143C14.8 6.09829 15.2032 5.71429 15.7 5.71429C16.1968 5.71429 16.6 6.09829 16.6 6.57143C16.6 7.04457 16.1968 7.42857 15.7 7.42857ZM16.6 4H14.8C13.8055 4 13 4.76714 13 5.71429V7.42857C13 8.37571 13.8055 9.14286 14.8 9.14286H16.6C17.5945 9.14286 18.4 8.37571 18.4 7.42857V5.71429C18.4 4.76714 17.5945 4 16.6 4ZM15.7 13.4286C15.2032 13.4286 14.8 13.0446 14.8 12.5714C14.8 12.0983 15.2032 11.7143 15.7 11.7143C16.1968 11.7143 16.6 12.0983 16.6 12.5714C16.6 13.0446 16.1968 13.4286 15.7 13.4286ZM16.6 10H14.8C13.8055 10 13 10.7671 13 11.7143V13.4286C13 14.3757 13.8055 15.1429 14.8 15.1429H16.6C17.5945 15.1429 18.4 14.3757 18.4 13.4286V11.7143C18.4 10.7671 17.5945 10 16.6 10ZM15.7 19.4286C15.2032 19.4286 14.8 19.0446 14.8 18.5714C14.8 18.0983 15.2032 17.7143 15.7 17.7143C16.1968 17.7143 16.6 18.0983 16.6 18.5714C16.6 19.0446 16.1968 19.4286 15.7 19.4286ZM16.6 16H14.8C13.8055 16 13 16.7671 13 17.7143V19.4286C13 20.3757 13.8055 21.1429 14.8 21.1429H16.6C17.5945 21.1429 18.4 20.3757 18.4 19.4286V17.7143C18.4 16.7671 17.5945 16 16.6 16ZM28.3 13.4286H22.9C22.4032 13.4286 22 13.0446 22 12.5714C22 12.0983 22.4032 11.7143 22.9 11.7143H28.3C28.7968 11.7143 29.2 12.0983 29.2 12.5714C29.2 13.0446 28.7968 13.4286 28.3 13.4286ZM29.2 10H22C21.0055 10 20.2 10.7671 20.2 11.7143V13.4286C20.2 14.3757 21.0055 15.1429 22 15.1429H29.2C30.1945 15.1429 31 14.3757 31 13.4286V11.7143C31 10.7671 30.1945 10 29.2 10ZM28.3 7.42857H22.9C22.4032 7.42857 22 7.04457 22 6.57143C22 6.09829 22.4032 5.71429 22.9 5.71429H28.3C28.7968 5.71429 29.2 6.09829 29.2 6.57143C29.2 7.04457 28.7968 7.42857 28.3 7.42857ZM29.2 4H22C21.0055 4 20.2 4.76714 20.2 5.71429V7.42857C20.2 8.37571 21.0055 9.14286 22 9.14286H29.2C30.1945 9.14286 31 8.37571 31 7.42857V5.71429C31 4.76714 30.1945 4 29.2 4ZM28.3 19.4286H22.9C22.4032 19.4286 22 19.0446 22 18.5714C22 18.0983 22.4032 17.7143 22.9 17.7143H28.3C28.7968 17.7143 29.2 18.0983 29.2 18.5714C29.2 19.0446 28.7968 19.4286 28.3 19.4286ZM29.2 16H22C21.0055 16 20.2 16.7671 20.2 17.7143V19.4286C20.2 20.3757 21.0055 21.1429 22 21.1429H29.2C30.1945 21.1429 31 20.3757 31 19.4286V17.7143C31 16.7671 30.1945 16 29.2 16Z" fill="white"/>
</g>
</svg>
