<svg width="100" height="100" viewBox="0 0 100 100" fill="none" xmlns="http://www.w3.org/2000/svg">
<rect x="4" y="4" width="92" height="92" rx="46" stroke="url(#paint0_linear_27_657)" stroke-opacity="0.1" stroke-width="8"/>
<rect x="14" y="14" width="72" height="72" rx="36" fill="url(#paint1_linear_27_657)" fill-opacity="0.1"/>
<g opacity="0.2" filter="url(#filter0_f_27_657)">
<path d="M59.4755 43.6565L65.7702 40.074C65.5188 39.8228 65.2175 39.622 64.8492 39.421L53.0469 32.6912C52.009 32.1052 51.0045 31.7871 50 31.7871C48.9955 31.7871 47.991 32.1052 46.9531 32.6912L43.5547 34.6164L59.4755 43.6565ZM50 49.0304L57.1485 44.9791L41.2947 35.9222L35.1507 39.421C34.7824 39.622 34.481 39.8228 34.2299 40.074L50 49.0304ZM51.1384 68.2157C51.2556 68.1823 51.356 68.132 51.4732 68.065L64.5815 60.5985C66.1384 59.7113 66.9921 58.8072 66.9921 56.3798V43.3385C66.9921 42.8363 66.942 42.4345 66.8584 42.0661L51.1384 51.0394V68.2157ZM48.8616 68.2157V51.0394L33.1417 42.0661C33.058 42.4345 33.0078 42.8363 33.0078 43.3385V56.3798C33.0078 58.8072 33.8616 59.7113 35.4185 60.5985L48.5267 68.065C48.644 68.132 48.7444 68.1823 48.8616 68.2157Z" fill="#34C759"/>
</g>
<g clip-path="url(#clip0_27_657)">
<path d="M42.6088 38.5653C43.3292 38.5653 43.9132 37.9813 43.9132 37.2609C43.9132 36.5405 43.3292 35.9565 42.6088 35.9565C41.8884 35.9565 41.3044 36.5405 41.3044 37.2609C41.3044 37.9813 41.8884 38.5653 42.6088 38.5653Z" fill="#34C759"/>
<path d="M57.8262 38.5653C58.5466 38.5653 59.1306 37.9813 59.1306 37.2609C59.1306 36.5405 58.5466 35.9565 57.8262 35.9565C57.1058 35.9565 56.5219 36.5405 56.5219 37.2609C56.5219 37.9813 57.1058 38.5653 57.8262 38.5653Z" fill="#34C759"/>
<path d="M50 33.3478C50.7204 33.3478 51.3044 32.7638 51.3044 32.0434C51.3044 31.323 50.7204 30.739 50 30.739C49.2797 30.739 48.6957 31.323 48.6957 32.0434C48.6957 32.7638 49.2797 33.3478 50 33.3478Z" fill="#34C759"/>
<path d="M69.5866 58.482C69.4692 58.3722 67.1002 56.1858 63.6681 54.9875C66.716 50.5941 66.4361 44.8674 66.4207 44.5943C66.3832 43.9305 65.8524 43.4011 65.1886 43.3653C64.9644 43.3535 60.2215 43.1282 56.0047 45.232C54.5374 40.8464 51.045 37.7463 50.8586 37.5832C50.367 37.1532 49.6328 37.1532 49.1412 37.5832C48.9548 37.7463 45.4625 40.8465 43.9951 45.232C39.7782 43.1281 35.0353 43.3531 34.8112 43.3653C34.1474 43.401 33.6166 43.9305 33.5791 44.5943C33.5637 44.8674 33.2838 50.594 36.3316 54.9875C32.8995 56.1859 30.5306 58.3723 30.4132 58.482C29.8617 58.9978 29.8625 59.8727 30.4132 60.3875C30.5995 60.5616 35.039 64.6522 40.652 64.6522C41.915 64.6522 43.1181 64.4447 44.2272 64.1217C45.7601 65.8649 48.8823 66.9628 49.5934 67.1959C49.8574 67.2826 50.1423 67.2826 50.4064 67.1959C51.1174 66.9627 54.2397 65.865 55.7727 64.1217C56.8817 64.4447 58.0849 64.6522 59.3478 64.6522C64.9607 64.6522 69.4003 60.5617 69.5866 60.3875C70.1382 59.8718 70.1372 58.9969 69.5866 58.482ZM39.4458 54.6762C36.8573 52.0383 36.3064 48.0052 36.2003 45.9847C37.8603 46.0645 40.8763 46.4224 43.4125 47.8789C43.0341 51.5462 44.5952 55.0402 46.8651 57.9446C41.6319 57.2239 39.7323 54.8954 39.4458 54.6762ZM49.9999 64.5763C48.8934 64.1742 47.7274 63.6043 46.9304 63.053C48.2511 62.3928 49.3097 61.6596 49.9999 61.1287C50.6901 61.6596 51.7488 62.3929 53.0695 63.053C52.2723 63.6044 51.1062 64.1744 49.9999 64.5763ZM56.5873 47.8788C59.1254 46.4213 62.144 46.0638 63.8025 45.9844C63.7005 48.0014 63.1554 52.0263 60.5543 54.676C60.2683 54.8947 58.3809 57.2113 53.1393 57.9387C55.4121 55.0286 56.9648 51.5379 56.5873 47.8788Z" fill="#34C759"/>
</g>
<defs>
<filter id="filter0_f_27_657" x="22.5" y="22.5" width="55" height="55" filterUnits="userSpaceOnUse" color-interpolation-filters="sRGB">
<feFlood flood-opacity="0" result="BackgroundImageFix"/>
<feBlend mode="normal" in="SourceGraphic" in2="BackgroundImageFix" result="shape"/>
<feGaussianBlur stdDeviation="3.75" result="effect1_foregroundBlur_27_657"/>
</filter>
<linearGradient id="paint0_linear_27_657" x1="0" y1="50" x2="100" y2="50" gradientUnits="userSpaceOnUse">
<stop stop-color="white"/>
<stop offset="1" stop-color="white" stop-opacity="0"/>
</linearGradient>
<linearGradient id="paint1_linear_27_657" x1="14" y1="50" x2="86" y2="50" gradientUnits="userSpaceOnUse">
<stop stop-color="white"/>
<stop offset="1" stop-color="white" stop-opacity="0"/>
</linearGradient>
<clipPath id="clip0_27_657">
<rect width="40" height="40" fill="white" transform="translate(30 29)"/>
</clipPath>
</defs>
</svg>
